<svg version="1.2" xmlns="http://www.w3.org/2000/svg" viewBox="0 0 1024 1024" width="1024" height="1024">
	<style>
		.s0 { fill: #2c2018 } 
		.s1 { fill: #f6f6f6 } 
		.s2 { fill: #f8f8f8 } 
		.s3 { fill: #f8f9f8 } 
		.s4 { fill: #1f1e1e } 
		.s5 { fill: #2d2c2c } 
		.s6 { fill: #ee7226 } 
		.s7 { fill: #f0f0ee } 
		.s8 { fill: #f1f1f0 } 
		.s9 { fill: #2e2d2d } 
		.s10 { fill: #2e2e2e } 
		.s11 { fill: #2e2e2d } 
		.s12 { fill: #1e1d1d } 
		.s13 { fill: #1e1e1d } 
		.s14 { fill: #333333 } 
		.s15 { fill: #2f2f2f } 
		.s16 { fill: #30302f } 
		.s17 { fill: #302f2f } 
		.s18 { fill: #383738 } 
		.s19 { fill: #383838 } 
		.s20 { fill: #333332 } 
		.s21 { fill: #363635 } 
		.s22 { fill: #353535 } 
		.s23 { fill: #353434 } 
		.s24 { fill: #212020 } 
		.s25 { fill: #323232 } 
		.s26 { fill: #343433 } 
		.s27 { fill: #343334 } 
		.s28 { fill: #393838 } 
		.s29 { fill: #222121 } 
		.s30 { fill: #393736 } 
		.s31 { fill: #373737 } 
		.s32 { fill: #343333 } 
		.s33 { fill: #383736 } 
		.s34 { fill: #beb6ae } 
	</style>
	<path class="s0" d="m584.96 302.4c22.23 18.65 36.82 43.34 41.5 72.02q0.18 1.12 0.37 2.28 0.94 5.7 1.73 11.42c1.23 8.4 2.82 14.14 9.44 19.88q1.8 1.74 3.57 3.51 0.86 0.85 1.75 1.73c2.84 2.98 5.2 6.26 7.55 9.64 0.78 1.1 0.78 1.1 1.56 2.23 7.32 10.68 12.93 22.06 18.01 33.95q0.49 1.16 1 2.35c1.99 4.8 3.54 9.49 4.56 14.59q-0.49 0.99-1 2 0.79 0.34 1.6 0.7c3.19 1.73 5.95 3.92 8.77 6.18q0.92 0.72 1.86 1.47 2.89 2.31 5.77 4.65c0.92 0.74 0.92 0.74 1.86 1.5 23.28 18.87 40.04 45.13 43.83 75.29 2.83 32.3-4.33 64.87-25.45 90.15-16.46 19.05-37.51 33.18-62.24 39.06q-1.1 0.26-2.23 0.54c-7.82 1.66-15.56 1.77-23.52 1.72q-3.37-0.01-6.73 0.01c-10.6 0.01-20.4-1-30.52-4.33q-0.92-0.3-1.86-0.61c-4.69-1.62-9-3.73-13.41-6-9.71-5.17-9.71-5.17-20.36-4.22q-1.16 0.44-2.37 0.89c-25.76 6.22-55.38 6.98-80.68-1.55-5.74-1.12-10.53 1.37-15.57 3.86-28.75 14.07-59.61 16.95-90.12 6.91-31.1-10.94-53.78-33.22-68.03-62.63-11.08-24.86-13.79-54.48-5.6-80.59q0.32-1.03 0.65-2.08c7.77-24.1 23.69-43.97 42.88-60.22 6.72-5.7 12.84-11.99 19.02-18.26q1.87-1.9 3.75-3.79 4.02-4.06 8.04-8.13 6.35-6.42 12.72-12.83 1.07-1.07 2.18-2.19 2.2-2.21 4.4-4.42 14.81-14.91 29.58-29.85 9.98-10.11 20.01-20.17 5.3-5.32 10.57-10.67 4.94-5.03 9.94-10.01 1.82-1.83 3.63-3.69 2.47-2.52 4.98-5c1.39-1.4 1.39-1.4 2.81-2.83 2.84-1.86 2.84-1.86 6.55-1.69q1.62 0.41 3.29 0.83 1.12 0.28 2.27 0.57c21.66 7 43.42 17.12 59.73 33.43q3.04 0.71 6.12 1.25c17.43 3.57 34.45 11.37 48.88 21.75-0.57-8.75-1.73-17.3-3.25-25.94-0.29-1.76-0.29-1.76-0.58-3.55-3.8-21.62-13.93-39.4-31.46-52.7-18.73-12.5-40.58-16.06-62.65-11.81-12.21 3.48-23.76 9.33-33.06 18q-1.03 0.92-2.1 1.86c-4.88 4.55-8.3 9.65-11.9 15.25-3.3 4.77-7.3 8.58-11.69 12.34-4.97 4.28-9.64 8.78-14.24 13.45q-2.2 2.22-4.41 4.45-3.43 3.46-6.85 6.94-3.33 3.37-6.68 6.74c-1.03 1.05-1.03 1.05-2.08 2.12q-0.94 0.95-1.92 1.93-0.83 0.85-1.69 1.71c-1.44 1.21-1.44 1.21-3.44 1.21q-0.49 1.48-1 3-0.99-0.49-2-1c2.37-10.7 2.37-10.7 3.52-15.83q1.95-8.65 3.78-17.33c6.73-31.69 23.26-59.7 50.7-77.84 10.75-6.54 21.83-11.72 34-15q1.63-0.47 3.31-0.96c33.74-8.36 71.55 1.1 98.65 22.36z"/>
	<path class="s1" d="m471.71 355.17c1.63 0.41 1.63 0.41 3.29 0.83q1.12 0.28 2.27 0.57c32.26 10.42 61.24 29.08 81.73 56.43q0.77 1.03 1.57 2.08 5.45 7.24 10.74 14.59 2.34 3.2 4.74 6.36c5.82 7.88 8.06 13.9 8.74 23.85 0.4 4.07 1.32 8.05 2.15 12.06 1.82 9.09 3.06 18.2 4.11 27.42q0.17 1.44 0.34 2.93 0.14 1.29 0.28 2.61c0.23 2.15 0.23 2.15 1.33 4.1q0.69 5.48 1.25 10.97c0.08 3.83 0.08 3.83 1.75 7.03q0.06 2.5 0 5c-3.78-3.47-6.54-7.43-9.44-11.63q-1.6-2.3-3.21-4.6-0.83-1.17-1.67-2.39c-2.69-3.82-5.44-7.6-8.18-11.38-6.74-9.31-13.37-18.7-19.98-28.1-15.13-21.93-15.13-21.93-31.52-42.9q-1.02-1.22-2.06-2.47c-8.86-10.24-18.95-18.25-30.94-24.53q-1.05-0.56-2.13-1.13c-2.43-1.17-4.43-1.88-7.14-1.83-4.1 1.44-6.51 4.22-9.5 7.3q-0.99 0.98-2.01 2-3.27 3.29-6.52 6.61-2.28 2.29-4.56 4.58-6.01 6.05-12 12.12-9.58 9.67-19.18 19.32-3.33 3.37-6.66 6.74-2.07 2.09-4.14 4.18-0.91 0.92-1.84 1.87c-3.7 3.73-7.54 7.23-11.51 10.66-2.18 1.9-4.23 3.89-6.26 5.94q-1.16 1.16-2.35 2.35c-1.21 1.23-1.21 1.23-2.45 2.48-1.29 1.29-1.29 1.29-2.6 2.61q-4.08 4.1-8.15 8.2-5.37 5.41-10.75 10.81c-1.21 1.23-1.21 1.23-2.45 2.48-4.77 4.78-9.67 9.32-14.8 13.71-16.19 14.73-26.01 33.78-27.2 55.73-0.21 17.46 4.25 33.74 14.2 48.27q0.84 1.23 1.7 2.49c10.93 14.75 28.5 24.96 46.51 28.06 20.52 2.42 39.66-1.94 57.87-11.66 3.17-1.47 5.74-0.98 8.92 0.11 3.06 1.63 6 3.38 8.94 5.21 2.62 1.54 5.22 2.77 8.03 3.92 4.39 1.87 8.66 4 12.97 6.06q1.45 0.69 2.94 1.4 3.56 1.7 7.12 3.41c-2.76 3.42-6.58 4.81-10.5 6.51-1.12 0.5-1.12 0.5-2.25 1q-3.62 1.6-7.25 3.18-2.49 1.09-4.99 2.18-3.69 1.62-7.38 3.22-6.22 2.7-12.36 5.57c-28 12.93-58.93 13.96-87.9 3.77-30.07-11.32-51.87-33.16-65.77-61.84-11.08-24.86-13.79-54.48-5.6-80.59q0.32-1.03 0.65-2.08c7.77-24.1 23.69-43.97 42.88-60.22 6.72-5.7 12.84-11.99 19.02-18.26q1.87-1.9 3.75-3.79 4.02-4.06 8.04-8.13 6.35-6.42 12.72-12.83 1.07-1.07 2.18-2.19 2.2-2.21 4.4-4.42 14.81-14.91 29.58-29.85 9.98-10.11 20.01-20.17 5.3-5.32 10.57-10.67 4.94-5.03 9.94-10.01 1.82-1.83 3.63-3.69 2.47-2.52 4.98-5 1.39-1.39 2.81-2.83c2.84-1.86 2.84-1.86 6.55-1.69z"/>
	<path class="s2" d="m659 464c4.91 3.56 9.59 7.31 14.19 11.25 4.32 3.7 8.71 7.26 13.25 10.69 26.37 20.09 45.96 44.93 51.81 78.37 3.93 31.26-2.34 64.29-21.77 89.67-16.92 21-38.95 36.72-65.48 43.02-1.1 0.26-1.1 0.26-2.23 0.54-7.82 1.66-15.56 1.77-23.52 1.72q-3.37-0.01-6.73 0.01c-20.28 0.03-37.07-6.23-55.08-14.9q-2.26-1.07-4.52-2.14-13.51-6.43-26.86-13.19-9.28-4.67-18.68-9.12-16.91-8.07-33.76-16.3-3.1-1.51-6.2-3.02-4.59-2.23-9.17-4.47-1.36-0.66-2.77-1.34c-15.79-7.74-15.79-7.74-18.57-15.07q-0.39-1.15-0.79-2.35-0.42-1.2-0.87-2.44c-4.08-11.77-4.51-22.59-4.25-34.93 5.85 1.7 11.14 4.4 16.58 7.1q1.55 0.76 3.14 1.54 3.32 1.64 6.64 3.28 6.97 3.44 13.95 6.87 3.49 1.72 6.97 3.43 13.59 6.69 27.22 13.28 1.93 0.94 3.87 1.87 2.87 1.39 5.74 2.78 8.59 4.15 17.16 8.33 11.86 5.77 23.73 11.52c1.75 0.85 1.75 0.85 3.54 1.72q9.7 4.7 19.46 9.28 1.03 0.49 2.1 0.99c20.16 9.38 41.64 11.67 62.78 3.99 6.82-2.67 13.11-5.77 19.12-9.98q1.28-0.87 2.59-1.76c15.85-11.65 23.12-28.6 27.41-47.24q0.29-1.23 0.59-2.49c3.46-20.99-3.6-41.21-15.4-58.32-5.11-6.69-11.17-13.51-18.19-18.19-0.41-2.73-0.41-2.73-0.5-6.19-0.33-6.43-1.33-12.43-2.67-18.72-0.98-4.7-1.76-9.42-2.52-14.15q-0.19-1.19-0.4-2.42c-0.66-4.22-1.05-8.23-0.91-12.52z"/>
	<path class="s3" d="m584.96 302.4c26.08 21.88 38.14 49.93 43.79 82.85q0.44 2.45 0.88 4.89 2.17 12.16 3.86 24.39c0.64 4.37 1.41 8.72 2.19 13.07 1.98 11.05 3.83 22.11 5.71 33.18q0.84 4.98 1.69 9.96 0.82 4.84 1.64 9.68c0.3 1.76 0.3 1.76 0.61 3.55q1.94 11.5 3.67 23.03 0.24 1.56 0.5 3.16c0.67 4.98 0.08 8.35-2.83 12.42-8.2 10.32-18.23 17.99-29.67 24.42-2.03-3.05-2.45-4.57-3.03-8.11-0.27-1.59-0.27-1.59-0.54-3.21q-0.28-1.73-0.57-3.52-0.3-1.83-0.61-3.71-0.67-4.01-1.32-8.02-1.05-6.41-2.11-12.81-1.69-10.21-3.37-20.42-2.05-12.5-4.11-25-0.18-1.09-0.37-2.22-3.66-22.18-7.36-44.34-0.59-3.51-1.17-7.02-1.43-8.58-2.91-17.14-0.41-2.37-0.81-4.74c-3.83-22.93-13.3-41.74-32.01-55.93-18.73-12.5-40.58-16.06-62.65-11.81-12.21 3.48-23.76 9.33-33.06 18q-1.03 0.92-2.1 1.86c-4.88 4.55-8.3 9.65-11.9 15.25-3.3 4.77-7.3 8.58-11.69 12.34-4.97 4.28-9.64 8.78-14.24 13.45q-2.2 2.22-4.41 4.45-3.43 3.46-6.85 6.94-3.33 3.37-6.68 6.74-1.02 1.04-2.08 2.12-0.94 0.95-1.92 1.93-0.83 0.85-1.69 1.71c-1.44 1.21-1.44 1.21-3.44 1.21-0.5 1.49-0.5 1.49-1 3q-0.99-0.49-2-1c2.37-10.7 2.37-10.7 3.52-15.83q1.95-8.65 3.78-17.33c6.73-31.69 23.26-59.7 50.7-77.84 10.75-6.54 21.83-11.72 34-15q1.63-0.47 3.31-0.96c33.74-8.36 71.55 1.1 98.65 22.36z"/>
	<path class="s4" d="m482 419c3.58 1.38 6.75 2.96 10 5-0.66 3.18-1.79 5.77-3.3 8.65q-0.71 1.36-1.44 2.76-0.78 1.46-1.57 2.96c-0.81 1.54-0.81 1.54-1.63 3.1-4.11 7.8-8.32 15.53-12.56 23.26-3.58 6.54-7.06 13.14-10.5 19.77q-5.9 11.38-12.06 22.63-2.24 4.08-4.47 8.17-1.47 2.7-2.95 5.4c-5.05 9.21-9.84 18.39-13.52 28.24q-0.4 1.05-0.81 2.14c-4.11 11.62-5.67 23.02-5.53 35.26q0.03 3.18 0.02 6.35c-0.33 10.6-0.33 10.6 3.7 20.06 0.8 0.62 0.8 0.62 1.62 1.25q0.93 0.72 1.88 1.46 1.05 0.76 2.12 1.54 1.17 0.88 2.37 1.79c4.48 3.28 8.79 5.77 13.87 7.97 3.32 1.49 6.58 3.11 9.83 4.74q0.97 0.49 1.96 0.99 4.03 2.03 8.06 4.06c9.56 4.83 19.19 9.52 28.87 14.12q10.69 5.11 21.32 10.33 1.51 0.74 3.06 1.5 6.16 3.02 12.31 6.05 4.6 2.26 9.19 4.51 1.38 0.68 2.79 1.38c4.74 2.32 9.49 4.53 14.37 6.56-1 2-1 2-2.86 2.79-6.69 1.99-13.27 3.13-20.2 3.9q-1.68 0.18-3.41 0.38c-21.04 2.15-45.47 3.08-65.53-5.07q-0.49-0.99-1-2c8.91-3.96 17.82-7.92 27-12-13.77-7.53-13.77-7.53-28.02-14.07-3.53-1.66-6.82-3.77-10.14-5.82-5.99-2.34-11.38 0.33-16.96 2.72-1.24 0.55-1.24 0.55-2.5 1.11q-2.49 1.07-4.98 2.15-1.15 0.5-2.34 1.02c-18.01 7.81-38.97 6.61-57.12-0.23-11.66-5.15-22.59-13.36-30.44-23.38q-0.71-0.91-1.44-1.84c-4.43-5.83-7.37-11.85-10.06-18.66q-0.47-1.09-0.95-2.2c-7.27-17.53-5.29-38.8 1.64-56.11 4.49-9.77 11.09-17.81 18.31-25.69 1.45 1.01 1.45 1.01 3 3 0.4 2.64 0.64 5.16 0.81 7.81 2.38 26.28 13.36 51.11 28.9 72.23 1.29 1.96 1.29 1.96 1.29 3.96q0.99 0 2 0-0.21-1.27-0.42-2.58c-5.59-36.12 1.75-70.56 18.14-102.89q1.24-2.44 2.44-4.89c6.74-13.71 14.86-23.9 25.79-34.47q2.27-2.24 4.53-4.49 5.87-5.81 11.8-11.58 6.06-5.93 12.09-11.9 11.78-11.64 23.63-23.2z"/>
	<path class="s4" d="m625 402c4.98 2.17 7.59 5.9 11 10 1.02 1.16 1.02 1.16 2.07 2.34 14.95 17.36 26.32 39.46 31.93 61.66-4.39 0-6.55-2.73-9.69-5.5q-0.9-0.78-1.84-1.59-2.24-1.95-4.47-3.91c0.61 8.07 1.69 16.01 3 24q0.27 1.67 0.54 3.39c0.91 5.88 0.91 5.88 2.46 11.61q0.04 3.37 0.06 6.75c0.27 5.05 0.27 5.05 2.5 9.45 2.07 1.73 4.21 3.27 6.44 4.8 15.52 13.24 24.03 33.13 26.23 53.1 1.61 21-6.28 41.85-19.42 58.03-12.81 13.91-32.58 24.21-51.6 25.32-11.94 0.36-22.86-0.71-34.21-4.45q4.72-3.8 9.55-7.45c6.45-4.88 12.58-9.98 18.45-15.55q1.35-1.27 2.75-2.59c9.45-9.15 16.65-19.3 23.69-30.35q0.77-1.22 1.58-2.47c2.35-3.77 4.55-7.35 5.98-11.59-4.04 2.22-8.07 4.45-12.05 6.8-21.04 12.35-42.97 20.4-66.51 26.7q-1.41 0.38-2.87 0.77c-1.33 0.35-1.33 0.35-2.7 0.7q-1.15 0.3-2.34 0.61c-6.19 1.03-10.38 0.43-15.95-2.43q-0.88-0.44-1.78-0.9-2.78-1.42-5.55-2.87-1.83-0.94-3.67-1.88-9.69-4.94-19.19-10.25c-2.41-1.26-4.85-2.28-7.39-3.25 1-2 1-2 3.39-2.99 1.56-0.51 1.56-0.51 3.16-1.03q1.72-0.57 3.5-1.16 1.82-0.59 3.7-1.19 1.75-0.58 3.56-1.18 10.32-3.37 20.72-6.54 7.37-2.27 14.72-4.62 5.7-1.82 11.43-3.54c21.42-6.4 42.47-15.42 59.82-29.75q1.01-0.82 2.06-1.67 1.99-1.64 3.94-3.33-0.49-0.98-1-2 0.15-3.19 0.44-6.37c0.48-6.26 0.7-12.49 0.75-18.75q0.02-1.18 0.04-2.39c0-4.57-0.39-8.95-1.1-13.47q-0.28-1.71-0.55-3.47-1.38-8.5-2.82-16.99-0.32-1.85-0.64-3.76-0.66-3.92-1.32-7.83-1-5.9-1.99-11.79c-2.07-12.22-4.15-24.44-6.58-36.6-1.22-6.18-1.97-12.28-2.23-18.58z"/>
	<path class="s5" d="m512.88 262.63q1.61 0 3.28 0c16.32 0.03 31.86 0.81 47.84 4.37q2.67 0.53 5.33 1.06c14.01 2.93 27.34 7.78 40.67 12.94q1.06 0.41 2.16 0.83c38.3 14.98 74.97 42.18 100.51 74.49q1.39 1.76 2.79 3.5c12.48 15.58 23.19 32.26 31.67 50.35q1.28 2.65 2.63 5.27c19.39 38.91 28.18 91.12 20.65 134.16-0.53 3.1-0.98 6.21-1.45 9.32-2.24 14.72-4.96 29.01-9.96 43.08q-0.45 1.28-0.92 2.6c-16.52 46.22-45.15 90.21-85.43 119.2q-2.61 1.92-5.17 3.91c-18.26 13.99-39.15 24.78-60.48 33.29q-1.05 0.42-2.14 0.86c-12.06 4.77-24.16 8.48-36.86 11.14q-1.58 0.34-3.21 0.7c-16.76 3.52-32.95 4.76-50.04 4.74q-1.33 0-2.71 0c-17.4-0.05-34.49-1.63-51.57-4.96q-2.91-0.56-5.82-1.09c-8.86-1.67-17.34-3.9-25.9-6.76q-0.95-0.32-1.93-0.65c-34.14-11.51-63.75-30.52-90.82-53.98q-2.03-1.72-4.06-3.44c-4.88-4.25-4.88-4.25-6.94-6.56q0-0.99 0-2-0.99 0-2 0c-1.38-1.33-1.38-1.33-3-3.25q-0.93-1.1-1.9-2.24-1.03-1.24-2.1-2.51-1.1-1.27-2.23-2.57c-21.41-25.04-38.31-54.13-48.77-85.43q-0.37-1.09-0.75-2.21c-3.39-10.16-5.95-20.4-8-30.91q-0.3-1.51-0.6-3.07c-2.87-15.44-4.04-30.75-3.96-46.43q0-1.24 0.01-2.51c0.26-58.2 20.83-113.66 57.3-158.87q1.18-1.49 2.4-3.02c12.12-14.97 26.01-28.67 41.6-39.98q1.67-1.25 3.34-2.5c9.17-6.78 18.81-12.77 28.66-18.5q1.01-0.59 2.06-1.2c26.34-15.15 55.96-24.4 85.94-28.8q1.66-0.26 3.38-0.54c12.15-1.75 24.23-1.86 36.49-1.83zm-190.87 90.37c-3.14 3.57-6.1 7.24-9 11q-1.19 1.48-2.41 3c-14.85 18.61-26.64 39.99-35.59 62q-0.4 0.98-0.81 1.99c-3.73 9.36-6.37 19.01-8.88 28.76q-0.42 1.63-0.86 3.31c-4.17 16.77-5.95 33.48-5.79 50.74q0.03 4.05 0.02 8.09c0.02 16.51 0.98 33.08 4.57 49.24q0.32 1.48 0.65 3.01c2.12 9.49 4.91 18.68 8.1 27.86q0.32 0.97 0.66 1.96c9.03 26.86 23.11 52.37 41.34 74.04q1.43 1.74 2.86 3.47c10.29 12.37 21.45 23.63 34.14 33.53q1.57 1.28 3.12 2.57c31.16 25.49 68.42 41.43 107.57 49.68q1.73 0.37 3.52 0.75c15.55 3.15 30.82 4.41 46.67 4.37 1.26 0.01 1.26 0.01 2.55 0.01 14.24-0.03 27.92-1.19 41.93-3.88q3.42-0.64 6.85-1.19c18.22-3.16 35.86-10.04 52.79-17.31q1.08-0.46 2.2-0.94c23.72-10.3 44.47-25.05 63.8-42.06q0.75-0.65 1.51-1.32c13.52-11.87 25.11-25 35.49-39.68q0.66-0.93 1.33-1.88c19.81-28.21 34.07-60.74 40.23-94.74q0.47-2.53 0.98-5.07c5.13-25.59 5.67-53.5 1.46-79.31q-0.22-1.47-0.46-2.98c-10.06-64.65-45.69-123.94-98.34-162.97q-2.09-1.53-4.2-3.05-0.92-0.66-1.86-1.35c-32.04-22.87-69.04-36.26-107.6-42.82-1.2-0.2-1.2-0.2-2.43-0.41-8.1-1.09-16.18-1.59-24.34-1.69q-1.4-0.02-2.85-0.04c-77.04-0.83-146.04 26.7-198.92 83.31z"/>
	<path class="s6" d="m525.14 461.22c7.44 4.63 11.15 12.42 15.24 19.9q1.72 3.11 3.44 6.21 0.82 1.47 1.67 2.98c2.4 4.26 4.96 8.39 7.56 12.53 2.79 4.52 5.47 9.11 8.15 13.69q3.16 5.42 6.4 10.78 0.62 1.02 1.26 2.08 1.17 1.94 2.36 3.88c4.47 7.37 4.41 14.33 3.78 22.73-0.87 3.09-2.12 5.41-4 8q-1.11 1.6-2.25 3.25c-6.6 6.6-13.84 7.9-22.88 7.91q-1.22 0.01-2.47 0.02-4.05 0.02-8.1 0.02-2.82 0.01-5.65 0.02-5.91 0.02-11.83 0.02-7.56 0.01-15.12 0.06-5.83 0.02-11.66 0.02-2.79 0.01-5.57 0.03-3.91 0.02-7.82 0.01-1.14 0.01-2.3 0.02c-7.7-0.06-14.09-2.4-19.81-7.63-5.6-6.37-7.25-14.25-7.21-22.53 0.88-8.46 6.36-16.09 10.67-23.22q0.94-1.57 1.92-3.19 1.83-2.97 3.69-5.92c3.41-5.47 6.56-11.11 9.77-16.7 9.16-15.93 9.16-15.93 13.12-22.44 0.54-0.92 0.54-0.92 1.09-1.85 8.78-14.21 21.77-16.61 36.55-10.68z"/>
	<path class="s7" d="m482 419c3.58 1.38 6.75 2.96 10 5-0.66 3.18-1.79 5.77-3.3 8.65q-0.71 1.36-1.44 2.76-0.78 1.46-1.57 2.96c-0.81 1.54-0.81 1.54-1.63 3.1-4.11 7.8-8.32 15.53-12.56 23.26-3.58 6.54-7.06 13.14-10.5 19.77q-5.9 11.38-12.06 22.63-2.24 4.08-4.47 8.17-1.47 2.7-2.95 5.4c-5.05 9.21-9.84 18.39-13.52 28.24q-0.4 1.05-0.81 2.14c-4.06 11.47-5.69 22.88-5.58 34.99q0.02 3.09-0.02 6.18c-0.02 11.52 2.27 21.55 6.54 32.19 1.64 4.14 3.17 8.14 3.87 12.56-12.68 7.07-23.81 7.28-38 7-16.67-37.61-15.47-77.39-0.98-115.53 2.58-6.48 5.55-12.73 8.7-18.94q1.24-2.44 2.44-4.89c6.74-13.71 14.86-23.9 25.79-34.47q2.27-2.24 4.53-4.49 5.87-5.81 11.8-11.58 6.06-5.93 12.09-11.9 11.78-11.64 23.63-23.2z"/>
	<path class="s8" d="m658 533c11.33 5.84 18.8 18.31 23 30-0.25 4.4-3.15 6.62-6.18 9.53-6.32 5.53-13.03 10.54-19.82 15.47q-0.86 0.63-1.74 1.27c-21.93 15.73-48.03 24.3-73.82 31.23q-1.41 0.38-2.87 0.77c-1.34 0.35-1.34 0.35-2.7 0.7q-1.15 0.3-2.34 0.61c-6.19 1.03-10.38 0.43-15.95-2.43q-0.88-0.44-1.78-0.9-2.78-1.42-5.55-2.88-1.83-0.93-3.67-1.87-9.69-4.94-19.19-10.25c-2.41-1.26-4.85-2.28-7.39-3.25 1-2 1-2 3.39-2.99q1.55-0.51 3.16-1.03 1.72-0.57 3.5-1.16c1.83-0.59 1.83-0.59 3.7-1.2q1.75-0.57 3.56-1.17 10.32-3.37 20.72-6.54 7.37-2.27 14.72-4.62 5.7-1.82 11.43-3.54c28.68-8.57 56.65-22.04 75.82-45.75z"/>
	<path class="s9" d="m439 305q-1.01 0.9-2.05 1.83c-1.33 1.2-1.33 1.2-2.7 2.42-1.32 1.18-1.32 1.18-2.67 2.39-2.56 2.26-2.56 2.26-4.53 4.59-2.05 1.77-2.05 1.77-4.86 2.23-3.21 0.54-5.4 1.42-8.28 2.91q-1.41 0.73-2.85 1.48-1.48 0.78-3 1.59-1.53 0.81-3.1 1.64c-8.37 4.48-16.31 9.31-23.96 14.92q-0.86 0.63-1.74 1.27c-9.74 7.21-18.55 15.33-27.26 23.73q-1.29 1.23-2.63 2.5c-37.68 36.63-59.61 91.25-60.67 143.4-0.03 6.56 0.26 13.02 0.9 19.55 1.31 13.43 1.45 24.6-2.6 37.55q-0.49 0-1 0-0.98-5.65-1.94-11.31-0.27-1.57-0.55-3.19c-3.65-21.55-3.54-43.23-0.76-64.88q0.23-1.86 0.48-3.79c1.18-8.54 3.26-16.59 5.77-24.83q0.6-2.17 1.17-4.35c15.47-56.36 55.43-105.11 105.76-134.14 35.81-20.26 35.81-20.26 43.07-17.51z"/>
	<path class="s10" d="m588 305c7.66 1.34 14.04 4.08 21 7.5q1.64 0.8 3.34 1.63c15.35 7.58 29.27 16.2 42.66 26.87 1.27 1 1.27 1 2.56 2.02 16.19 13 30.55 27.97 42.44 44.98q0.65 0.9 1.31 1.83c19.78 27.67 32.46 59.19 38.25 92.64q0.45 2.59 0.98 5.16c1.94 10.41 1.8 20.85 1.78 31.41q0 4.88 0.04 9.77c0.04 11.52 0.06 23.08-3.36 34.19q-0.99 0.49-2 1-1.1-4.12-2.12-8.25-0.31-1.13-0.63-2.3c-1.42-5.86-0.94-10.43 0.22-16.32 0.9-5.34 0.83-10.66 0.78-16.07-0.01-1.76-0.01-1.76-0.02-3.55-0.7-60.12-26.37-115.27-68.81-157.32-4.89-4.77-9.92-9.13-15.42-13.19q-1.85-1.44-3.7-2.88c-13.52-10.31-28.58-19.36-44.34-25.84-6.39-2.76-10.73-7.9-14.96-13.28z"/>
	<path class="s11" d="m362 693c6.93 1.65 13.86 3.3 21 5q-0.99 0.99-2 2c49.08 35.55 109.27 48.58 169 39.26 31.73-5.44 68.15-18.05 93-39.26q-1.48-0.99-3-2c6.93-1.32 13.86-2.64 21-4-1.35 4.04-4.03 5.55-7.38 7.94-0.99 0.71-0.99 0.71-2 1.45-19.04 13.57-38.67 24.55-60.62 32.61q-1.14 0.42-2.31 0.85c-13.4 4.84-27.15 7.33-41.17 9.67-2.63 0.44-2.63 0.44-5.52 1.48-59.69 8.47-122.71-9.41-170.65-45.18-3.24-2.51-6.35-5.02-9.35-7.82q0-0.99 0-2z"/>
	<path class="s12" d="m376 503q-0.02 1.47-0.05 2.97-0.08 5.58-0.11 11.16-0.03 2.39-0.07 4.78c-0.2 12.62 0.34 24.56 5.41 36.34 3.06 7.88 2.2 16.38 2.01 24.69q-0.07 3.78-0.11 7.57-0.04 2.34-0.09 4.68c-0.06 3.45-0.01 6.5 1.01 9.81q0.1 2.62 0.06 5.25-0.01 1.33-0.02 2.7-0.02 1.01-0.04 2.05-0.99 0-2 0c-2.96-3.79-5.45-7.92-8-12-0.98-1.57-0.98-1.57-1.99-3.18-12.06-20.17-19.62-41.74-21.65-65.16-0.19-3.48-0.19-3.48-1.15-5.89-0.21-1.77-0.21-1.77 1.38-3.88 1.16-1.09 1.16-1.09 2.35-2.2q1.24-1.18 2.52-2.39 4.22-3.83 8.55-7.53c2.93-2.61 5.62-5.43 8.33-8.27 1.66-1.5 1.66-1.5 3.66-1.5z"/>
	<path class="s12" d="m658 587c-0.53 5.01-2.9 8.49-5.56 12.63q-0.68 1.05-1.37 2.14c-6.45 10.02-13.44 19.16-21.67 27.76q-2.01 2.11-3.99 4.25c-8.2 8.57-17.55 15.65-27.41 22.22-6.08-0.16-11.45-3.33-16.81-5.94q-1.44-0.68-2.93-1.38c-7.13-3.42-7.13-3.42-8.26-5.68q0.71-0.42 1.45-0.85c14.18-8.39 26.88-17.39 38.89-28.7 4.16-3.83 8.03-6.83 13.2-9.18q1.56-0.73 3.18-1.48 1.65-0.76 3.34-1.54c8.11-3.79 15.7-7.57 22.9-12.92 2.04-1.33 2.04-1.33 5.04-1.33z"/>
	<path class="s13" d="m582 379q1.64 0.64 3.32 1.31c2.68 1.69 2.68 1.69 3.85 4.4q0.29 1.59 0.58 3.23 0.33 1.72 0.66 3.5 0.29 1.75 0.59 3.56 0.31 1.61 0.62 3.28c0.97 5.31 1.63 10.32 1.38 15.72-6.39-3.61-6.39-3.61-9.13-5.36-12.69-8.01-28.61-15.3-43.61-17.09-3.45-0.58-4.5-1.11-6.88-3.55-3.37-3.17-6.9-5.93-10.69-8.56q-0.83-0.57-1.67-1.16c-4.47-3.03-9.11-5.55-13.97-7.89-2.05-1.39-2.05-1.39-2.85-3.56q-0.1-0.9-0.2-1.83c23.72-7.91 56.31 4.62 78 14z"/>
	<path class="s14" d="m556.96 330.05c4.28 3.33 7.74 6.64 11.04 10.95-1.26-0.21-1.26-0.21-2.54-0.43-5.71-0.94-11.43-1.83-17.15-2.73q-2.18-0.34-4.36-0.68-3.19-0.51-6.38-1-1.88-0.3-3.82-0.6c-16.25-2.42-32.55-2.49-48.75 0.44q-3.67 0.59-7.34 1.16-2.46 0.39-4.91 0.79-7.36 1.17-14.75 2.05c6.6-8.74 15.23-13.39 25.06-17.81q0.95-0.44 1.93-0.88c23.05-9.94 51.76-5.29 71.97 8.74z"/>
	<path class="s15" d="m402 354c0.99 0.5 0.99 0.5 2 1-0.99 3.96-1.98 7.92-3 12-0.5-0.99-0.5-0.99-1-2-23.51 16.32-41.72 36.17-56 61q-0.53 0.9-1.07 1.83c-12.14 21-20.76 44.16-21.29 68.52-0.22 4.44-0.91 6.93-4.08 10.09q-1.74 1.34-3.56 2.56c-0.99 0.99-0.99 0.99-2 2 2.45-49.68 22.51-94.26 57-130q1.04-1.1 2.11-2.23c9.21-9.52 20.2-17.02 30.89-24.77z"/>
	<path class="s16" d="m621 355c4.32 1.46 7.64 3.77 11.19 6.56q0.85 0.66 1.72 1.34c4.44 3.5 8.68 7.2 12.84 11.04 1.99 1.82 4.04 3.53 6.13 5.25 32.56 28.5 55.57 77.21 58.89 119.97q0.21 3.92 0.23 7.84c-3 0-3 0-5.56-2.3-3.46-4.42-3.75-9.47-4.44-14.89-5.88-39.72-23.9-74.09-52-102.81q-1-1.08-2.03-2.18c-4.09-4.31-8.57-8.02-13.22-11.69q-0.9-0.72-1.83-1.45c-3.41-2.66-3.41-2.66-7.23-4.65-1.69-1.03-1.69-1.03-2.74-3.63q-0.34-1.49-0.7-3.02-0.36-1.5-0.73-3.04-0.26-1.15-0.52-2.34z"/>
	<path class="s17" d="m434 695q0 0.99 0 2 0.96 0.14 1.95 0.29c3.28 0.76 6.25 1.87 9.38 3.08 45.14 17.5 94.27 14.59 139.05-2.49 2.62-0.88 2.62-0.88 5.62-0.88q0-0.99 0-2c4.46 0.99 4.46 0.99 9 2q0 1.48 0 3c-38.56 17.58-82.1 24.98-124 16q-1.52-0.31-3.09-0.63c-17.21-3.57-33.38-7.93-48.91-16.37q0-0.99 0-2c7.62-2 7.62-2 11-2z"/>
	<path class="s13" d="m444 377c0.99 0.5 0.99 0.5 2 1q-15.52 15.66-31.08 31.29-7.23 7.26-14.44 14.53-6.95 7.02-13.93 14.01-2.66 2.67-5.31 5.35-3.71 3.75-7.44 7.48c-1.1 1.12-1.1 1.12-2.23 2.26q-1.01 1.01-2.05 2.04c-0.88 0.89-0.88 0.89-1.78 1.79-1.74 1.25-1.74 1.25-5.74 1.25 10.81-36.02 43.23-60.29 74.76-77.51 5.12-2.67 5.12-2.67 7.24-3.49z"/>
	<path class="s18" d="m699 570q0.49 0 1 0c3.94 20.84-1.5 41.99-13.2 59.48-10.11 14.17-24.97 24.1-41.8 28.52 1.59-4.01 4.43-6.54 7.5-9.44 6.21-6.05 11.47-12.51 16.5-19.56 0.61-0.86 0.61-0.86 1.24-1.73 9.87-13.88 17.85-28.71 23.51-44.78 1.53-4.28 3.34-8.37 5.25-12.49z"/>
	<path class="s19" d="m325 570c1.64 2.46 2.51 4.14 3.45 6.85q0.4 1.14 0.81 2.31 0.42 1.21 0.86 2.47c9.93 27.42 25.49 54.38 48.45 73q0.7 0.67 1.43 1.37 0 0.98 0 2c-13.65-1.63-25.92-11.2-35-21q-0.88-0.86-1.79-1.74c-14.18-14.53-19.48-34.74-19.38-54.46 0.17-3.69 0.58-7.16 1.17-10.8z"/>
	<path class="s20" d="m458 366c-7.49 8.63-14.72 13.26-24.97 18.02-17.22 8.31-32.48 20.64-46.03 33.98q-0.97 0.93-1.97 1.9c-9.74 10.18-16.64 24.23-22.03 37.1q0.99 0 2 0c-1.66 4.33-4.87 7.09-8.12 10.25q-0.85 0.83-1.71 1.68-2.08 2.04-4.17 4.07c-2.65-7.96 4.1-18.74 7.63-25.87 7.17-14.15 15.93-26.25 26.37-38.13q1.78-2.15 3.56-4.31 1.2-1.33 2.44-2.69 0.99 0 2 0-0.49 2.46-1 5c4.55-3.7 8.71-7.67 12.79-11.87q0.77-0.79 1.57-1.61 3.25-3.32 6.47-6.67 2.37-2.47 4.78-4.91 0.72-0.76 1.46-1.55c1.38-1.4 1.38-1.4 3.93-3.39 2.07 0.3 2.07 0.3 4 1 2.1-0.61 2.1-0.61 4.2-1.73q1.18-0.58 2.4-1.18 1.24-0.63 2.52-1.28 2.57-1.25 5.13-2.5 1.23-0.6 2.48-1.22c11.43-5.51 11.43-5.51 14.27-4.09z"/>
	<path class="s21" d="m348 528c1.45 1.01 1.45 1.01 3 3 0.4 2.64 0.64 5.16 0.81 7.81 2.38 26.28 13.36 51.11 28.9 72.23 1.29 1.96 1.29 1.96 1.29 3.96q0.99 0 2 0c0.5-1.98 0.5-1.98 1-4q2 10 4 20c-5.51-1.84-8.53-7.53-12-12q-0.99-1.25-2.02-2.54c-16.39-21.49-26.03-47.09-30.98-73.46q-0.29-1.44-0.58-2.93c-0.39-2.47-0.68-4.58-0.42-7.07 2.44-3.13 2.44-3.13 5-5z"/>
	<path class="s22" d="m670 575c1 2 1 2 0.36 4.19-5.96 14.34-13.52 27.78-23.36 39.81q-0.61 0.76-1.24 1.54c-26.76 33.25-26.76 33.25-41.76 38.46-2.81-0.32-5.27-1.18-8-2q4.72-3.8 9.55-7.45c6.45-4.88 12.58-9.98 18.45-15.55q1.35-1.27 2.75-2.59c9.45-9.15 16.65-19.3 23.69-30.35q0.77-1.22 1.58-2.47c2.35-3.77 4.55-7.35 5.98-11.59q-0.99-0.49-2-1 1.26-0.93 2.55-1.9 1.66-1.24 3.32-2.48c0.84-0.61 0.84-0.61 1.69-1.25 2.28-1.7 4.43-3.36 6.44-5.37z"/>
	<path class="s23" d="m585 373q0.49-1.48 1-3c0.99 5.94 0.99 5.94 2 12-4.4-1.38-8.62-3.05-12.88-4.82-9.25-3.82-18.3-7.09-28.12-9.18q-1.03-0.22-2.1-0.45c-13.62-2.8-27.04-2.9-40.9-2.55q0.49 1.48 1 3c-4.22-1.36-8.29-2.9-12.38-4.63q-1.58-0.66-3.21-1.35-1.18-0.5-2.41-1.02c17.64-17.64 79.56 3.12 98 12z"/>
	<path class="s24" d="m554 328c0.99 1.49 0.99 1.49 2 3-5.77-0.4-11.52-0.8-17.26-1.51-20.33-2.45-41.2-3.09-61.35 0.95-3.39 0.56-3.39 0.56-6.39-0.44 3.8-3.8 7.69-5.92 12.63-8.06q1.71-0.76 3.47-1.54c21.53-8.34 47.62-4.29 66.9 7.6z"/>
	<path class="s25" d="m482.81 679.06c14.73 4.35 31.77 4.07 46.82 1.94q1-0.14 2.02-0.29 5.03-0.72 10.03-1.55c11.48-1.77 11.48-1.77 17.32 1.84-1 2-1 2-2.86 2.79-6.69 1.99-13.27 3.13-20.2 3.9q-1.68 0.18-3.41 0.38c-21.04 2.15-45.47 3.08-65.53-5.07q-0.49-0.98-1-2c6.27-3.89 9.89-4.24 16.81-1.94z"/>
	<path class="s14" d="m631 402c5.03 2.51 7.45 5.74 11 10q1.02 1.15 2.07 2.34c14.95 17.36 26.32 39.46 31.93 61.66-4.28 0-5.99-1.83-9.09-4.64-2.88-3.56-3.65-7.31-4.8-11.69-4.8-15.83-15.41-32.97-27.11-44.67-0.99 1.49-0.99 1.49-2 3-0.66-5.28-1.32-10.56-2-16z"/>
	<path class="s26" d="m384 493c1.22 4.05 0.34 5.98-1 10-2.21 15.13-1.56 29.89 1.71 44.78 1.35 6.45 1.49 11.89-0.71 18.22-2.68-3.17-3.87-6.1-5.06-10.06q-0.48-1.56-0.98-3.16c-2.6-10.18-3.47-20.02-3.61-30.5q-0.04-2.41-0.14-4.82c-0.56-13.41-0.56-13.41 2.84-18.58 2.21-2.21 4.38-4.11 6.95-5.88z"/>
	<path class="s24" d="m699 587q0.49 0 1 0c1.44 17.04-6.37 34.28-16.75 47.44-5.73 6.48-13.31 14.47-22.25 15.56 2.5-3.89 5.16-7.49 8.11-11.05 12.83-15.49 22.98-33.03 29.89-51.95z"/>
	<path class="s27" d="m538 391c6.84 0.41 12.74 1.59 19.13 4.06q1.21 0.46 2.46 0.94c11.42 4.43 22.5 9.73 32.41 17q0.99-0.49 2-1c0.5 5.44 0.5 5.44 1 11-3.23-1.61-6.16-3.37-9.18-5.33-10.44-6.74-21.57-13.45-33.82-16.17-6-1.38-9.93-5.01-14-9.5q0-0.49 0-1z"/>
	<path class="s28" d="m615 610c-10.69 11.64-23.36 20.89-36.56 29.5-1.09 0.75-1.09 0.75-2.2 1.51-5.07 3.19-5.07 3.19-8.54 2.6-2.23-0.83-2.23-0.83-5.7-2.61 3.56-4.15 7.86-6.25 12.63-8.75 7.94-4.28 14.95-8.83 21.37-15.25q-0.99-0.99-2-2 4.68-1.55 9.38-3.06 1.32-0.44 2.69-0.9 1.27-0.4 2.58-0.83 1.17-0.38 2.38-0.77c1.97-0.44 1.97-0.44 3.97 0.56z"/>
	<path class="s29" d="m325 589c1.77 2.65 2.95 5.16 4.16 8.09 7.38 17.8 17.68 33.54 30.8 47.66 2.12 2.34 4.09 4.76 6.04 7.25-8.55-2.43-15.04-8.57-21-15q-0.88-0.86-1.79-1.74c-11.16-11.44-18.43-28.6-18.25-44.5q0.02-0.87 0.04-1.76z"/>
	<path class="s30" d="m421 600c6.53 4.77 12.77 9.85 19 15q0.99-0.99 2-2c1.65 4.62 3.3 9.24 5 14-8.5-2.12-15.62-8.18-22-14-0.99 0.5-0.99 0.5-2 1q-0.51-2.37-1-4.75-0.28-1.32-0.56-2.67c-0.44-2.58-0.44-2.58-0.44-6.58z"/>
	<path class="s19" d="m649 519c-0.05 1.02-0.05 1.02-0.09 2.06q-0.21 4.63-0.41 9.25-0.07 1.6-0.14 3.25-0.07 1.53-0.14 3.12-0.06 1.41-0.13 2.87-0.1 2.72-0.09 5.45c-2.41 2.26-2.41 2.26-5.5 4.69q-1.52 1.2-3.09 2.45c-1.19 0.92-1.19 0.92-2.41 1.86-1.3-3.91-0.37-5.66 0.88-9.56 1.33-4.38 2.31-8.24 2.43-12.82 0.31-5.05 2.66-7.66 6.1-11.22 1.59-1.4 1.59-1.4 2.59-1.4z"/>
	<path class="s31" d="m673 524c2.82 1.67 5.04 3.36 7 6 0.45 3.77-0.28 7.18-1.06 10.88q-0.26 1.45-0.53 2.95-0.65 3.59-1.41 7.17-1.48 0-3 0c-3.09-4.23-4.37-6.78-3.73-12.06q0.45-2.69 0.98-5.38 0.24-1.37 0.49-2.79 0.6-3.39 1.26-6.77z"/>
	<path class="s32" d="m429.38 647.06c0.96 0.57 0.96 0.57 1.94 1.15q2.34 1.38 4.68 2.79 0 0.99 0 2c-2.98 2.04-5.37 2.98-9 3-5.24-2.32-9.8-6.18-14-10q-0.49-1.48-1-3c6.61-2.29 11.83 0.71 17.38 4.06z"/>
	<path class="s33" d="m481.19 400.09c2.66 0.86 5.25 1.78 7.81 2.91-2.83 1.89-5.13 2.84-8.31 3.94-3.25 1.14-6.18 2.31-9.25 3.87q-1.2 0.59-2.44 1.19-0.99-0.49-2-1 2.53-2.81 5.13-5.56 0.7-0.8 1.43-1.62c2.61-2.73 3.77-3.84 7.63-3.73z"/>
	<path class="s34" d="m537 595c-4.65 3.57-9.35 3.68-15 4 2.61-1.74 4.58-2.69 7.5-3.69 1.16-0.41 1.16-0.41 2.34-0.82 2.16-0.49 2.16-0.49 5.16 0.51z"/>
</svg>